<?xml version="1.0" standalone="no"?>
<!DOCTYPE svg PUBLIC "-//W3C//DTD SVG 20010904//EN"
 "http://www.w3.org/TR/2001/REC-SVG-20010904/DTD/svg10.dtd">
<svg version="1.0" xmlns="http://www.w3.org/2000/svg"
 width="500.000000pt" height="500.000000pt" viewBox="0 0 500.000000 500.000000"
 preserveAspectRatio="xMidYMid meet">

<g transform="translate(0.000000,500.000000) scale(0.100000,-0.100000)"
fill="#000000" stroke="none">
<path d="M525 3644 c-11 -2 -43 -9 -72 -15 -130 -26 -195 -116 -214 -298 -16
-149 -6 -709 13 -776 39 -132 97 -181 246 -204 110 -17 737 -15 796 3 55 17
111 57 135 98 l18 29 7 -38 c3 -21 6 -53 6 -70 l0 -33 110 0 110 0 0 380 0
380 -370 0 -370 0 0 -105 0 -105 245 0 245 0 0 -110 c0 -103 -2 -113 -24 -135
-13 -13 -41 -28 -62 -34 -49 -14 -752 -15 -788 -1 -14 5 -33 21 -43 37 -16 24
-18 58 -21 334 -3 257 -1 313 12 343 27 65 37 66 461 66 414 0 421 -1 468 -61
l27 -34 81 82 82 81 -22 35 c-30 49 -94 104 -149 130 -46 21 -58 22 -477 24
-236 0 -439 -1 -450 -3z"/>
<path d="M3659 3611 c-128 -41 -212 -92 -305 -185 -87 -87 -137 -167 -181
-287 -25 -67 -27 -87 -27 -219 -1 -133 1 -151 26 -219 45 -121 95 -200 182
-287 118 -118 266 -193 415 -210 l61 -7 0 69 c0 38 -7 90 -14 115 -8 26 -17
71 -21 101 -6 45 -4 56 9 61 26 10 20 56 -9 67 -23 9 -25 15 -25 67 0 32 -3
88 -7 126 -6 64 -5 67 16 67 18 0 21 6 21 46 0 38 -4 47 -20 51 -20 5 -20 11
-15 122 4 64 8 121 10 126 1 6 38 10 86 9 l84 0 6 -97 c3 -53 7 -98 10 -100
18 -13 59 -37 65 -37 3 0 3 56 -1 124 l-7 124 71 23 c39 13 73 20 76 17 11
-11 53 -195 56 -248 l4 -55 -88 -3 -89 -3 82 -49 c45 -28 86 -50 91 -50 5 0 9
-4 9 -8 0 -8 14 -16 63 -40 4 -2 7 8 7 22 l0 26 90 0 90 0 0 -27 c0 -16 -6
-51 -14 -79 l-14 -52 40 -22 c22 -12 41 -20 42 -19 17 21 39 124 43 205 9 166
-26 300 -117 440 -170 260 -515 387 -801 295z m237 -141 c12 -36 25 -88 29
-116 l7 -52 -36 -4 c-20 -2 -52 -2 -72 0 l-36 4 7 47 c3 25 15 79 27 119 27
92 44 93 74 2z m124 23 c48 -41 100 -109 100 -130 0 -16 -58 -43 -93 -43 -21
0 -24 8 -39 83 -9 45 -20 92 -24 105 -9 31 6 27 56 -15z m-265 10 c-4 -10 -15
-55 -24 -100 -14 -75 -18 -83 -39 -83 -32 0 -92 27 -92 41 0 18 68 106 103
134 38 29 62 33 52 8z m-195 -55 c0 -7 -9 -24 -20 -38 -18 -24 -20 -24 -37 -7
-17 17 -17 19 7 37 29 22 50 26 50 8z m650 -8 c24 -18 24 -20 7 -37 -17 -17
-19 -17 -37 7 -11 14 -20 31 -20 38 0 18 21 14 50 -8z m-742 -98 l24 -18 -26
-85 c-14 -46 -31 -126 -37 -176 l-13 -93 -88 0 c-102 0 -100 -3 -72 104 19 76
64 165 116 234 43 56 60 62 96 34z m885 -42 c54 -71 91 -147 112 -226 27 -106
29 -104 -73 -104 l-88 0 -13 93 c-6 50 -23 130 -37 176 l-26 85 24 18 c37 28
54 22 101 -42z m-715 -42 l65 -22 -7 -80 c-3 -45 -6 -105 -6 -133 l0 -53 -93
0 c-52 0 -96 2 -99 5 -18 18 47 305 69 305 3 0 36 -10 71 -22z m-206 -496 c9
-59 27 -138 39 -176 l23 -68 -25 -19 c-46 -36 -65 -23 -137 89 -44 68 -78 159
-88 235 l-7 47 90 0 89 0 16 -108z m258 65 c0 -24 3 -84 6 -134 l7 -90 -64
-22 c-34 -11 -66 -21 -71 -21 -25 0 -91 284 -70 304 3 3 47 6 99 6 l93 0 0
-43z m41 -388 c9 -46 20 -92 24 -101 12 -29 -20 -22 -60 14 -47 40 -98 115
-92 132 6 14 84 46 102 42 5 -1 17 -40 26 -87z m-187 -14 c30 -46 12 -61 -34
-26 -20 16 -22 21 -11 35 18 22 26 20 45 -9z"/>
<path d="M2144 3355 c-82 -18 -132 -45 -181 -97 -71 -78 -78 -115 -78 -403 0
-291 7 -326 82 -406 93 -99 159 -111 633 -107 l365 3 12 80 c6 44 12 92 12
108 l1 27 -375 0 c-413 0 -430 2 -459 59 -9 17 -16 55 -16 91 l0 60 441 0 442
0 -5 173 c-6 206 -21 260 -92 325 -96 88 -160 102 -481 101 -160 0 -260 -5
-301 -14z m552 -220 c44 -18 64 -63 64 -145 l0 -60 -310 0 -310 0 0 68 c0 141
22 152 308 152 164 0 221 -3 248 -15z"/>
</g>
</svg>
